<svg xmlns="http://www.w3.org/2000/svg" version="1.1" id="Layer_1" x="0px" y="0px" width="200px" height="39px" viewBox="0 0 199 38" enable-background="new 0 0 199 38" xml:space="preserve" class="header" preserveAspectRatio="xMidYMid meet"><metadata id="metadata3403"/><defs id="defs3401"/><style id="style3431">.textColor{fill:	#00355F;}.imgcolor{fill:	#FFC60B;}</style><g id="g3337" transform="translate(-1.0060222,-6.2096167)" class="textColor"><g id="g3339"><g id="g3341"><g id="g3343"><path id="path3345" d="m 64.855,35.594 -4.125,0 c -0.018,0 -0.03,-0.004 -0.04,-0.018 l -3.555,-4.338 -3.558,4.338 c -0.009,0.014 -0.024,0.018 -0.041,0.018 l -3.303,0 c -0.02,0 -0.038,-0.01 -0.049,-0.031 -0.008,-0.015 -0.006,-0.036 0.007,-0.053 l 5.236,-6.428 -5.177,-6.368 c -0.015,-0.02 -0.015,-0.04 -0.007,-0.06 0.008,-0.012 0.028,-0.03 0.046,-0.03 l 4.126,0 c 0.012,0 0.031,0.008 0.039,0.024 l 3.119,3.864 3.173,-3.866 c 0.011,-0.014 0.026,-0.022 0.041,-0.022 l 3.364,0 c 0.02,0 0.04,0.018 0.048,0.03 0.008,0.02 0.006,0.042 -0.008,0.06 l -4.914,5.897 5.615,6.898 c 0.012,0.017 0.016,0.038 0.006,0.053 -0.006,0.022 -0.024,0.032 -0.043,0.032 l 0,0 z"/><path id="path3347" d="m 93.177,29.92 c -0.01,0.013 -0.028,0.025 -0.046,0.025 l -9.443,0 c 0.196,2.196 1.625,3.449 3.935,3.449 1.424,0 2.935,-0.485 5.071,-1.62 0.036,-0.023 0.078,0.011 0.078,0.051 l -0.006,2.903 c -0.002,0.024 -0.014,0.038 -0.03,0.043 -1.987,0.838 -3.983,1.407 -5.55,1.407 l 0,0 c -4.065,0 -7.014,-2.961 -7.014,-7.041 0,-4.079 2.949,-7.041 7.014,-7.041 3.708,0 6.093,2.497 6.093,5.934 0,0.556 -0.098,1.848 -0.102,1.89 z m -5.991,-5.01 c -1.825,0 -3.075,1.107 -3.432,3.034 l 6.217,0 0,-0.124 c 0,-1.542 -1.136,-2.91 -2.785,-2.91 l 0,0 z"/><path id="path3349" d="m 110.662,35.594 c -0.032,0 -0.053,-0.02 -0.053,-0.053 l 0,-12.863 c 0,-0.026 0.019,-0.046 0.04,-0.053 l 3.412,0 c 0.026,0.007 0.042,0.027 0.042,0.053 l 0,12.863 c 0,0.033 -0.021,0.053 -0.05,0.053 l -3.391,0 z m 1.699,-15.647 c -1.16,0 -2.103,-0.928 -2.103,-2.068 0,-1.175 0.942,-2.127 2.103,-2.127 1.155,0 2.1,0.953 2.1,2.127 0,1.14 -0.944,2.068 -2.1,2.068 l 0,0 z"/><path id="path3351" d="m 72.019,22.099 c -0.959,0 -1.933,0.174 -2.951,0.525 l -3.393,0 c -0.03,0 -0.048,0.024 -0.048,0.054 l 0,21.093 c 1.023,-0.139 2.278,-0.503 3.499,-1.372 l -0.002,-6.416 c 0.837,0.117 1.529,0.196 2.196,0.196 4.646,0 7.656,-2.784 7.656,-7.097 0,-4.112 -2.862,-6.983 -6.957,-6.983 z m -0.926,11.559 c -0.615,0 -1.244,-0.088 -1.969,-0.28 l 0.008,-8.254 c 0.848,-0.268 1.585,-0.396 2.314,-0.396 2.364,0 3.951,1.742 3.951,4.333 0,2.793 -1.689,4.597 -4.304,4.597 z"/><path id="path3353" d="m 104.453,15.813 0,6.734 c -0.996,-0.285 -1.874,-0.417 -2.759,-0.417 -4.045,0 -7.099,3.05 -7.099,7.097 0,4.028 2.693,6.951 6.401,6.951 1.283,0 2.487,-0.322 3.899,-1.049 l -0.004,1.163 c 0.932,-0.178 2.006,-0.552 3.062,-1.3 l 0,-20.555 c -1.036,0.138 -2.268,0.485 -3.5,1.376 z m 0,16.776 c -1.064,0.557 -2.012,0.822 -2.905,0.822 -2.106,0 -3.366,-1.486 -3.366,-3.979 0,-2.881 1.611,-4.743 4.102,-4.743 0.687,0 1.356,0.169 2.17,0.537 l 0,7.363 z"/><path id="path3355" d="m 129.425,22.469 c 0,-0.08 -0.067,-0.144 -0.146,-0.144 l -2.755,0.006 c -0.082,0 -0.152,0.068 -0.152,0.146 l 0,0.469 -0.068,0 c -1.272,-0.557 -2.36,-0.815 -3.428,-0.815 -3.813,0 -6.805,3.164 -6.805,7.212 0,4.092 2.677,6.836 6.66,6.836 1.063,0 2.431,-0.071 3.706,-1.542 l 0,1.654 c 0.904,-0.191 1.972,-0.574 2.983,-1.302 l 0.005,-12.52 z m -3.506,10.094 c -1.025,0.593 -1.907,0.879 -2.694,0.879 -2.255,0 -3.604,-1.482 -3.604,-3.98 0,-2.839 1.591,-4.743 3.955,-4.743 0.635,0 1.402,0.242 2.344,0.739 l 0,7.105 z"/><path id="path3357" d="m 40.807,32.332 8.542,-0.002 c -0.127,0.954 -0.451,2.072 -1.192,3.211 l -7.331,0 -1.458,-10e-4 c -0.03,0 -0.062,10e-4 -0.097,10e-4 -1.087,0 -1.984,-0.843 -2.09,-1.908 -0.004,-0.017 -0.012,-0.033 -0.014,-0.046 l 0,-8.749 0,-8.096 c 0.002,-0.013 0.01,-0.031 0.014,-0.041 0.106,-1.068 1.003,-1.914 2.09,-1.914 0.035,0 0.067,0.004 0.097,0.004 l 9.965,-0.002 c -0.13,0.953 -0.452,2.098 -1.193,3.234 l -7.332,0 0,4.586 7.257,0 c 0.032,0 0.054,0.022 0.054,0.05 l 0,3.18 c 0,0.028 -0.022,0.05 -0.054,0.05 l -7.257,0 0,6.44 0,0.003 z"/></g><g id="g3359"><g id="g3361"><defs id="defs3363"><path id="SVGID_3_" d="M 11.274,36.206 C 3.239,33.344 -0.955,24.516 1.904,16.477 4.766,8.443 13.598,4.248 21.634,7.108 c 8.035,2.861 12.23,11.693 9.367,19.729 -2.859,8.038 -11.69,12.228 -19.727,9.369 z"/></defs><use xmlns:xlink="http://www.w3.org/1999/xlink" id="use3366" x="0" y="0" width="100%" height="100%" xlink:href="#SVGID_3_" overflow="visible"/><clipPath id="SVGID_1_"><use xmlns:xlink="http://www.w3.org/1999/xlink" id="use3369" x="0" y="0" width="100%" height="100%" xlink:href="#SVGID_3_" overflow="visible"/></clipPath><g id="g3371" clip-path="url(#SVGID_1_)" class="imgcolor"><path id="path3373" d="m 19.639,20.2 0.421,1.825 -0.758,8.757 0.926,-0.296 3.583,-11.478 5.359,-1.536 c 0.689,-0.215 1.387,-0.62 1.857,-0.925 -0.166,-0.471 -0.352,-0.93 -0.563,-1.377 -0.545,-0.002 -1.264,0.03 -1.897,0.192 l -5.346,1.525 -9.096,-7.847 -0.945,0.231 5.273,7.042 0.623,1.763 -5.068,1.444 -12.826,4.454 c 0.04,0.264 0.088,0.527 0.142,0.787 l 13.29,-3.126 5.025,-1.435 z"/></g></g><g id="g3375"><path id="path3377" d="m 29.979,36.33 c -0.26,0 -0.504,-0.05 -0.732,-0.15 -0.23,-0.1 -0.43,-0.235 -0.6,-0.404 -0.171,-0.171 -0.306,-0.371 -0.406,-0.601 -0.1,-0.229 -0.15,-0.476 -0.15,-0.736 0,-0.259 0.05,-0.502 0.15,-0.732 0.1,-0.229 0.234,-0.43 0.406,-0.6 0.17,-0.171 0.37,-0.307 0.6,-0.405 0.229,-0.102 0.473,-0.15 0.732,-0.15 0.257,0 0.502,0.049 0.732,0.15 0.229,0.099 0.43,0.234 0.601,0.405 0.172,0.17 0.308,0.371 0.407,0.6 0.098,0.23 0.147,0.474 0.147,0.732 0,0.261 -0.049,0.508 -0.147,0.736 -0.099,0.229 -0.234,0.43 -0.407,0.601 -0.171,0.169 -0.373,0.305 -0.601,0.404 -0.231,0.1 -0.475,0.15 -0.732,0.15 z m 0,-0.309 c 0.211,0 0.411,-0.04 0.597,-0.123 0.188,-0.082 0.35,-0.195 0.49,-0.339 0.139,-0.144 0.249,-0.312 0.329,-0.504 0.079,-0.189 0.119,-0.396 0.119,-0.616 0,-0.219 -0.04,-0.423 -0.119,-0.615 -0.08,-0.192 -0.189,-0.361 -0.329,-0.503 -0.14,-0.143 -0.303,-0.256 -0.49,-0.338 -0.186,-0.082 -0.385,-0.123 -0.597,-0.123 -0.212,0 -0.412,0.041 -0.598,0.123 -0.187,0.082 -0.35,0.195 -0.487,0.338 -0.138,0.142 -0.249,0.311 -0.33,0.503 -0.081,0.192 -0.121,0.396 -0.121,0.615 0,0.221 0.04,0.427 0.121,0.616 0.081,0.192 0.191,0.36 0.33,0.504 0.137,0.144 0.3,0.257 0.487,0.339 0.185,0.082 0.385,0.123 0.598,0.123 z m -0.769,-2.699 0.812,0 c 0.092,0 0.18,0.015 0.268,0.046 0.087,0.032 0.163,0.075 0.229,0.133 0.066,0.058 0.118,0.127 0.158,0.207 0.04,0.081 0.06,0.171 0.06,0.271 0,0.092 -0.015,0.172 -0.044,0.243 -0.03,0.07 -0.068,0.13 -0.114,0.181 -0.048,0.05 -0.102,0.091 -0.163,0.123 -0.06,0.032 -0.122,0.054 -0.186,0.066 l 0.723,0.913 -0.486,0 -0.634,-0.865 -0.242,0 0,0.865 -0.381,0 0,-2.183 z m 0.786,0.992 c 0.044,0 0.086,-0.007 0.128,-0.02 0.041,-0.015 0.078,-0.034 0.112,-0.063 0.034,-0.027 0.061,-0.062 0.082,-0.104 0.02,-0.044 0.03,-0.093 0.03,-0.148 0,-0.054 -0.01,-0.101 -0.03,-0.144 C 30.297,33.793 30.27,33.757 30.236,33.729 30.202,33.703 30.165,33.68 30.124,33.666 30.082,33.65 30.04,33.644 29.996,33.644 l -0.405,0 0,0.67 0.405,0 z"/></g></g><g id="g3379"><path id="path3381" d="m 156.954,22.037 c 3.997,0 6.946,2.887 6.946,7.009 0,4.115 -2.949,7.008 -6.946,7.008 -3.975,0 -6.984,-2.893 -6.984,-7.008 0,-4.122 3.009,-7.009 6.984,-7.009 z m 0,11.332 c 1.979,0 3.477,-1.699 3.477,-4.298 0,-2.654 -1.497,-4.319 -3.477,-4.319 -1.987,0 -3.51,1.635 -3.51,4.319 0,2.629 1.493,4.298 3.51,4.298 z"/><path id="path3383" d="m 133.693,32.159 c 1.055,0 1.872,0.817 1.872,1.869 0,1.021 -0.85,1.841 -1.872,1.841 -0.993,0 -1.843,-0.847 -1.843,-1.841 0.001,-1.021 0.85,-1.869 1.843,-1.869 z"/><g id="g3385"><path id="path3387" d="m 143.942,36.034 c -4.356,0 -7.319,-2.934 -7.319,-7.083 0,-3.827 3.216,-7.043 7.688,-7.043 1.402,0 2.787,0.319 4.368,0.901 l -0.064,2.981 c -1.486,-0.644 -2.957,-1.017 -3.951,-1.017 -2.807,0 -4.474,1.75 -4.474,4.206 0,2.517 1.803,4.169 4.521,4.169 1.395,0 2.663,-0.435 4.025,-1.32 0.036,-0.021 0.04,0.024 0.04,0.024 l -0.006,2.847 c -1.398,0.898 -3.191,1.335 -4.828,1.335 z"/></g></g></g></g><g id="g3389"><path id="path3391" d="m 196.978,22.942 -0.617,0 0,1.699 -0.393,0 0,-1.699 -0.617,0 0,-0.317 1.627,0 0,0.317 z m 1.532,1.114 0.549,-1.431 0.563,0 0,2.017 -0.366,0 0,-1.577 -0.01,0 -0.604,1.577 -0.273,0 -0.603,-1.577 -0.01,0 0,1.577 -0.367,0 0,-2.017 0.568,0 0.553,1.431 z"/><path id="path3393" d="m 167.652,32.244 c 1.055,0 1.871,0.817 1.871,1.869 0,1.022 -0.849,1.841 -1.871,1.841 -0.993,0 -1.844,-0.849 -1.844,-1.841 0.001,-1.022 0.851,-1.869 1.844,-1.869"/><path id="path3395" d="m 177.76,28.371 6.023,-5.609 -4.122,0 -4.703,4.909 0,-13.123 -0.026,0.011 0,-0.011 c -1.001,0.133 -2.184,0.475 -3.379,1.301 l 0.015,19.755 3.391,0 0,-5.945 5.61,5.945 4.325,0 -7.134,-7.233 z"/><path id="path3397" d="m 189.304,28.834 0,6.77 -3.39,0 0,-12.9 3.156,0 0,2.171 c 1.517,-1.817 3.129,-2.492 4.851,-2.492 l 0.233,0 0,3.636 c -4.296,0.058 -4.85,0.264 -4.85,2.815"/></g></g></svg>